# xmcd CD database file
#
# Track frame offsets:
#	150
#	16980
#	30545
#	49019
#	67320
#	86335
#	98537
#	110940
#	128962
#	142240
#	158857
#	176052
#	193880
#	208512
#	221527
#	239370
#	260638
#
# Disc length: 3627 seconds
#
# Revision: 0
# Processed by: cddbd v1.5.2PL0 Copyright (c) Steve Scherf et al.
# Submitted via: CDex 1.51
#
DISCID=020e2911
DTITLE=Jake Shimabukuro - GENTLY WEEPS
DYEAR=2006
DGENRE=Jazz
TTITLE0=Hula Girl
TTITLE1=Beyond The Break
TTITLE2=White My Guitar Gently Weeps -solo-
TTITLE3=Angel
TTITLE4=Over The Rainbow -solo-
TTITLE5=Coffee Talk
TTITLE6=Let's Dance -solo-
TTITLE7=Heartbeat - Dragon -solo-
TTITLE8=Hey Little Lady
TTITLE9=Breathe -solo-
TTITLE10=Wish On My Star -solo-
TTITLE11=Lazy Jane
TTITLE12=Touch -solo-
TTITLE13=Spain -solo-
TTITLE14=On The Road
TTITLE15=The Star-Spangled Bnner -solo-
TTITLE16=DataTrack
EXTD=YEAR: 2006
EXTT0=
EXTT1=
EXTT2=
EXTT3=
EXTT4=
EXTT5=
EXTT6=
EXTT7=
EXTT8=
EXTT9=
EXTT10=
EXTT11=
EXTT12=
EXTT13=
EXTT14=
EXTT15=
EXTT16=
PLAYORDER=
